<svg width="21" height="20" viewBox="0 0 21 20" fill="currentColor" xmlns="http://www.w3.org/2000/svg">
<path d="M10.8346 1.66663C9.06653 1.66663 7.37083 2.36901 6.12059 3.61925C4.87035 4.86949 4.16797 6.56518 4.16797 8.33329C4.16797 12.8333 10.043 17.9166 10.293 18.1333C10.4439 18.2624 10.636 18.3333 10.8346 18.3333C11.0333 18.3333 11.2254 18.2624 11.3763 18.1333C11.668 17.9166 17.5013 12.8333 17.5013 8.33329C17.5013 6.56518 16.7989 4.86949 15.5487 3.61925C14.2984 2.36901 12.6027 1.66663 10.8346 1.66663ZM10.8346 16.375C9.05964 14.7083 5.83464 11.1166 5.83464 8.33329C5.83464 7.00721 6.36142 5.73544 7.2991 4.79776C8.23678 3.86008 9.50855 3.33329 10.8346 3.33329C12.1607 3.33329 13.4325 3.86008 14.3702 4.79776C15.3079 5.73544 15.8346 7.00721 15.8346 8.33329C15.8346 11.1166 12.6096 14.7166 10.8346 16.375ZM10.8346 4.99996C10.1754 4.99996 9.5309 5.19546 8.98273 5.56173C8.43457 5.928 8.00733 6.44859 7.75504 7.05768C7.50274 7.66677 7.43673 8.33699 7.56535 8.98359C7.69397 9.6302 8.01144 10.2241 8.47761 10.6903C8.94379 11.1565 9.53773 11.474 10.1843 11.6026C10.8309 11.7312 11.5012 11.6652 12.1102 11.4129C12.7193 11.1606 13.2399 10.7334 13.6062 10.1852C13.9725 9.63703 14.168 8.99256 14.168 8.33329C14.168 7.44924 13.8168 6.60139 13.1917 5.97627C12.5665 5.35115 11.7187 4.99996 10.8346 4.99996ZM10.8346 9.99996C10.505 9.99996 10.1828 9.90221 9.90869 9.71908C9.6346 9.53594 9.42098 9.27564 9.29484 8.9711C9.16869 8.66655 9.13568 8.33144 9.19999 8.00814C9.2643 7.68484 9.42304 7.38787 9.65612 7.15478C9.88921 6.92169 10.1862 6.76296 10.5095 6.69865C10.8328 6.63434 11.1679 6.66735 11.4724 6.79349C11.777 6.91964 12.0373 7.13326 12.2204 7.40734C12.4036 7.68142 12.5013 8.00366 12.5013 8.33329C12.5013 8.77532 12.3257 9.19924 12.0131 9.5118C11.7006 9.82436 11.2767 9.99996 10.8346 9.99996Z" >
</svg>
